<svg width="1200" height="280" viewBox="0 0 1200 280" fill="none" xmlns="http://www.w3.org/2000/svg" role="img" aria-labelledby="title desc">
  <title id="title">Ashton Turner</title>
  <desc id="desc">Security consultant, systems engineer, and builder of practical AI tools.</desc>
  <rect x="16" y="16" width="1168" height="248" rx="28" fill="#0F1115" stroke="#2A2E37"/>
  <rect x="52" y="56" width="108" height="108" rx="20" fill="#F5F5F5"/>
  <path d="M86 138L106 84H118L138 138H127L122 123H101L97 138H86ZM104 114H119L111 91L104 114Z" fill="#111111"/>
  <path d="M141 84H151V138H141V84Z" fill="#111111"/>
  <text x="192" y="82" fill="#8D95A3" font-family="Arial, Helvetica, sans-serif" font-size="16" letter-spacing="5.5">ASHTON TURNER</text>
  <text x="192" y="140" fill="#F5F7FA" font-family="Arial, Helvetica, sans-serif" font-size="46" font-weight="700">Security, systems, and practical AI.</text>
  <text x="192" y="184" fill="#B4BBC7" font-family="Arial, Helvetica, sans-serif" font-size="24">Building Pear, infrastructure tools, and operator-grade software.</text>
  <rect x="890" y="64" width="220" height="42" rx="21" fill="#151922" stroke="#303645"/>
  <text x="918" y="91" fill="#F5F7FA" font-family="Arial, Helvetica, sans-serif" font-size="18" font-weight="700">Pear MCP</text>
  <rect x="890" y="119" width="220" height="42" rx="21" fill="#151922" stroke="#303645"/>
  <text x="918" y="146" fill="#F5F7FA" font-family="Arial, Helvetica, sans-serif" font-size="18" font-weight="700">Codex Desktop Linux</text>
  <rect x="890" y="174" width="220" height="42" rx="21" fill="#151922" stroke="#303645"/>
  <text x="918" y="201" fill="#F5F7FA" font-family="Arial, Helvetica, sans-serif" font-size="18" font-weight="700">BOM Radar Card</text>
</svg>
